<svg width="22" height="22" viewBox="0 0 22 22" fill="none" xmlns="http://www.w3.org/2000/svg">
<path d="M16.4091 4.98103L10.9914 10.4113C10.3895 11.0147 10.9914 11.618 11.5934 11.0147L17.011 5.5844H18.215L20.6228 3.17094H18.8169V1.36084L16.4091 3.7743V4.98103Z" fill="white" stroke="white" stroke-width="0.1"/>
<path d="M15.807 4.3777L14.6031 5.58443C13.3993 4.3777 10.2002 4.20018 8.58351 4.98106C7.51827 5.49559 6.32033 6.27189 5.57371 7.39452C4.36986 9.20463 4.1933 11.8675 4.97175 13.4282C5.75019 14.9889 7.21981 16.445 8.58351 17.0484C9.78748 17.5811 11.5934 17.6517 13.3993 17.0484C15.0125 16.5094 16.4691 15.0572 17.011 13.4282C17.6129 11.6183 17.613 9.20461 16.409 7.39452L17.6129 6.18779H18.8168L19.4188 5.58443C20.6227 6.79115 21.5496 11.2439 20.6227 14.0315C20.0208 15.8416 18.1501 18.2983 16.409 19.4618C14.6032 20.6685 10.4419 21.4905 7.98162 20.6685C6.17574 20.0652 3.7679 18.4564 2.5639 16.445C0.758103 13.4282 0.758056 11.0147 1.35998 7.99789C2.5639 4.98106 3.76788 3.17097 7.98155 1.36087C10.3894 0.757484 14.0012 0.757495 16.409 2.5676L15.807 3.17097V4.3777Z" fill="white"/>
<path d="M9.78748 10.4114L12.7973 7.39453C10.9069 6.78738 9.24889 7.22922 7.9816 8.60126C6.49757 10.208 7.37966 13.3419 8.58351 14.0315C9.49541 14.554 10.8157 15.1099 12.1953 14.6349C13.3204 14.2476 14.0012 14.0315 14.6032 12.8248C14.9041 12.2215 15.2051 10.4113 14.6031 9.20463L11.5934 12.2215C10.3895 12.8248 9.18554 11.6181 9.78748 10.4114Z" fill="white"/>
<path d="M15.807 4.3777L14.6031 5.58443C13.3993 4.3777 10.2002 4.20018 8.58351 4.98106C7.51827 5.49559 6.32033 6.27189 5.57371 7.39452C4.36986 9.20463 4.1933 11.8675 4.97175 13.4282C5.75019 14.9889 7.21981 16.445 8.58351 17.0484C9.78748 17.5811 11.5934 17.6517 13.3993 17.0484C15.0125 16.5094 16.4691 15.0572 17.011 13.4282C17.6129 11.6183 17.613 9.20461 16.409 7.39452L17.6129 6.18779H18.8168L19.4188 5.58443C20.6227 6.79115 21.5496 11.2439 20.6227 14.0315C20.0208 15.8416 18.1501 18.2983 16.409 19.4618C14.6032 20.6685 10.4419 21.4905 7.98162 20.6685C6.17574 20.0652 3.7679 18.4564 2.5639 16.445C0.758103 13.4282 0.758056 11.0147 1.35998 7.99789C2.5639 4.98106 3.76788 3.17097 7.98155 1.36087C10.3894 0.757484 14.0012 0.757495 16.409 2.5676L15.807 3.17097V4.3777Z" stroke="white" stroke-width="0.1"/>
<path d="M9.78748 10.4114L12.7973 7.39453C10.9069 6.78738 9.24889 7.22922 7.9816 8.60126C6.49757 10.208 7.37966 13.3419 8.58351 14.0315C9.49541 14.554 10.8157 15.1099 12.1953 14.6349C13.3204 14.2476 14.0012 14.0315 14.6032 12.8248C14.9041 12.2215 15.2051 10.4113 14.6031 9.20463L11.5934 12.2215C10.3895 12.8248 9.18554 11.6181 9.78748 10.4114Z" stroke="white" stroke-width="0.1"/>
</svg>
