<svg width="166" height="66" viewBox="0 0 166 66" fill="none" xmlns="http://www.w3.org/2000/svg">
<path d="M76 4.70231V11.7024C59 -3.29763 32.5 -0.797632 30 26.2023H21.5C25 3.20238 50 -4.29761 76 4.70231Z" fill="#057E37"/>
<path d="M31 43.7023H22.5C27.5 60.7023 48 72.7023 77 60.7023V43.7023H68.5V61.2023C51 69.2023 35.25 59.4828 31 43.7023Z" fill="#057E37"/>
<path d="M76 4.70231V11.7024C59 -3.29763 32.5 -0.797632 30 26.2023H21.5C25 3.20238 50 -4.29761 76 4.70231Z" stroke="#057E37" stroke-width="0.1"/>
<path d="M31 43.7023H22.5C27.5 60.7023 48 72.7023 77 60.7023V43.7023H68.5V61.2023C51 69.2023 35.25 59.4828 31 43.7023Z" stroke="#057E37" stroke-width="0.1"/>
<path d="M142.5 4.70231V11.7024C125.5 -3.29763 99 -0.797632 96.5 26.2023H88C91.5 3.20238 116.5 -4.29761 142.5 4.70231Z" fill="#057E37"/>
<path d="M97.5 43.7023H89C94 60.7023 114.5 72.7023 143.5 60.7023V43.7023H135V61.2023C117.5 69.2023 101.75 59.4828 97.5 43.7023Z" fill="#057E37"/>
<path d="M142.5 4.70231V11.7024C125.5 -3.29763 99 -0.797632 96.5 26.2023H88C91.5 3.20238 116.5 -4.29761 142.5 4.70231Z" stroke="#057E37" stroke-width="0.1"/>
<path d="M97.5 43.7023H89C94 60.7023 114.5 72.7023 143.5 60.7023V43.7023H135V61.2023C117.5 69.2023 101.75 59.4828 97.5 43.7023Z" stroke="#057E37" stroke-width="0.1"/>
<path d="M19 34.2024H1" stroke="#272727" stroke-linecap="round"/>
<path d="M165 34.2024H147" stroke="#272727" stroke-linecap="round"/>
<path d="M44.0273 35.7239H47.5186V36.0667H46.6553V39.2024L45.2715 38.8977C44.7129 39.177 44.0908 39.3167 43.4053 39.3167C42.542 39.3167 41.7718 39.0881 41.0947 38.6311C40.0452 37.9117 39.5205 36.8199 39.5205 35.3557C39.5205 34.1708 39.8887 33.2187 40.625 32.4993C41.3529 31.8053 42.2712 31.4583 43.3799 31.4583C44.0062 31.4583 44.6029 31.5852 45.1699 31.8391L46.3379 31.5979L46.3887 34.2131H46.0205C45.9189 33.7815 45.7962 33.4091 45.6523 33.0959C45.2461 32.2581 44.5732 31.8391 43.6338 31.8391C42.068 31.8476 41.2809 33.0367 41.2725 35.4065C41.2725 36.0328 41.3232 36.5745 41.4248 37.0315C41.7041 38.301 42.4193 38.9358 43.5703 38.9358C44.2051 38.9358 44.7256 38.7369 45.1318 38.3391V36.0667H44.0273V35.7239ZM52.7861 39.2024H49.1933V38.8596H50.2089V31.928H49.1933V31.5852H53.2812C53.9498 31.5852 54.5169 31.7418 54.9824 32.0549C55.541 32.4358 55.8203 32.9436 55.8203 33.5784C55.8203 33.79 55.7864 34.0015 55.7187 34.2131C55.4817 34.8987 54.9316 35.3557 54.0683 35.5842L56.0615 38.8723H56.3281C56.3789 38.8723 56.4296 38.8765 56.4804 38.885C56.5905 38.9104 56.6455 39.0162 56.6455 39.2024L54.5127 39.2151L52.583 35.7239H51.7705V38.8596H52.7861V39.2024ZM52.6464 31.928H51.7705V35.343H52.7226C53.0188 35.343 53.2812 35.2626 53.5097 35.1018C53.9414 34.7887 54.1572 34.2935 54.1572 33.6165C54.1572 33.3541 54.1149 33.1086 54.0302 32.8801C53.7933 32.2454 53.332 31.928 52.6464 31.928ZM64.2616 33.9719H63.9316L63.6904 33.1848C63.665 33.1002 63.6353 33.0198 63.6015 32.9436C63.3307 32.2665 62.8694 31.928 62.2177 31.928H60.5927V35.0891H63.0937V35.47H60.5927V38.8596H62.2177C62.387 38.8596 62.5435 38.8385 62.6874 38.7961C63.1275 38.6607 63.4576 38.2629 63.6777 37.6028L63.9316 36.8157H64.2616L64.2109 39.2024H58.0155V38.8596H59.0312V31.928H58.0155V31.5852H64.2109L64.2616 33.9719ZM72.4745 33.9719H72.1444L71.9032 33.1848C71.8778 33.1002 71.8482 33.0198 71.8143 32.9436C71.5435 32.2665 71.0822 31.928 70.4305 31.928H68.8055V35.0891H71.3065V35.47H68.8055V38.8596H70.4305C70.5998 38.8596 70.7564 38.8385 70.9003 38.7961C71.3404 38.6607 71.6705 38.2629 71.8905 37.6028L72.1444 36.8157H72.4745L72.4237 39.2024H66.2284V38.8596H67.244V31.928H66.2284V31.5852H72.4237L72.4745 33.9719ZM79.9002 31.928V31.5852H82.4774V31.928H81.4618V39.1389L80.7889 39.2659L75.8631 33.3879V38.8596H76.5995C76.7772 38.8765 76.8914 38.9908 76.9422 39.2024H74.327V38.8596H75.3426V31.928H74.327V31.5852H76.3455L80.9412 37.0823V31.928H79.9002ZM88.6336 35.7239H92.1248V36.0667H91.2615V39.2024L89.8777 38.8977C89.3191 39.177 88.6971 39.3167 88.0115 39.3167C87.1482 39.3167 86.3781 39.0881 85.701 38.6311C84.6515 37.9117 84.1268 36.8199 84.1268 35.3557C84.1268 34.1708 84.4949 33.2187 85.2313 32.4993C85.9591 31.8053 86.8774 31.4583 87.9861 31.4583C88.6124 31.4583 89.2091 31.5852 89.7762 31.8391L90.9441 31.5979L90.9949 34.2131H90.6268C90.5252 33.7815 90.4025 33.4091 90.2586 33.0959C89.8523 32.2581 89.1795 31.8391 88.24 31.8391C86.6743 31.8476 85.8872 33.0367 85.8787 35.4065C85.8787 36.0328 85.9295 36.5745 86.0311 37.0315C86.3104 38.301 87.0255 38.9358 88.1766 38.9358C88.8113 38.9358 89.3318 38.7369 89.7381 38.3391V36.0667H88.6336V35.7239ZM97.9763 31.4583C98.9073 31.4583 99.7198 31.7164 100.414 32.2327C101.396 32.9605 101.886 34.0185 101.886 35.4065C101.886 36.5745 101.489 37.5308 100.693 38.2756C99.9399 38.9781 99.0216 39.3293 97.9382 39.3293C96.9819 39.3293 96.144 39.05 95.4246 38.4915C94.4682 37.7467 93.99 36.7014 93.99 35.3557C93.99 34.1877 94.392 33.2356 95.1961 32.4993C95.9578 31.8053 96.8845 31.4583 97.9763 31.4583ZM97.9763 38.9612C98.1795 38.9612 98.3699 38.94 98.5476 38.8977C99.5971 38.6184 100.122 37.4377 100.122 35.3557C100.122 34.8056 100.084 34.3189 100.008 33.8958C99.7621 32.5162 99.0724 31.8264 97.9382 31.8264C97.8621 31.8264 97.7817 31.8306 97.697 31.8391C96.4021 31.9576 95.7546 33.1467 95.7546 35.4065C95.7546 36.1513 95.8224 36.7818 95.9578 37.2981C96.254 38.4068 96.9268 38.9612 97.9763 38.9612ZM111.521 39.2024H108.335V38.8596H109.211L108.259 36.4221H105.694L104.767 38.8596H105.44C105.491 38.8596 105.537 38.8639 105.58 38.8723C105.698 38.8977 105.758 39.0077 105.758 39.2024H103.447V38.8596H104.259L107.052 31.5852H107.84L110.81 38.8596H111.204C111.263 38.8596 111.31 38.8639 111.343 38.8723C111.462 38.8977 111.521 39.0077 111.521 39.2024ZM108.106 36.0413L106.964 33.0706L105.834 36.0413H108.106ZM118.909 39.2024H112.891V38.8596H113.907V31.928H112.891V31.5852H116.548V31.928H115.468V38.8596H116.916C117.153 38.8596 117.36 38.8173 117.538 38.7327C117.876 38.5719 118.134 38.1952 118.312 37.6028L118.63 36.511H118.96L118.909 39.2024ZM126.474 37.1204C126.474 37.6705 126.28 38.136 125.89 38.5168C125.332 39.0585 124.532 39.3293 123.491 39.3293C122.602 39.3293 121.828 39.1135 121.168 38.6819C121.168 38.8427 121.159 38.9612 121.142 39.0374C121.1 39.1643 120.973 39.2278 120.761 39.2278V36.5618H121.218C121.244 36.8918 121.299 37.1965 121.383 37.4758C121.705 38.4661 122.369 38.9612 123.377 38.9612C123.647 38.9612 123.893 38.9146 124.113 38.8215C124.663 38.6015 124.938 38.1952 124.938 37.6028C124.938 37.4081 124.892 37.2219 124.798 37.0442C124.621 36.6887 124.159 36.329 123.415 35.9651C122.611 35.5673 122.145 35.3346 122.018 35.2668C121.223 34.7844 120.825 34.1877 120.825 33.4768C120.825 33.0028 120.994 32.5924 121.333 32.2454C121.849 31.7206 122.598 31.4583 123.58 31.4583C124.35 31.4583 125.069 31.6233 125.738 31.9534C125.738 31.8772 125.742 31.8095 125.751 31.7502C125.784 31.5894 125.92 31.509 126.157 31.509V33.7815H125.7C125.7 33.316 125.581 32.914 125.344 32.5754C124.989 32.0761 124.464 31.8264 123.77 31.8264C123.55 31.8264 123.343 31.8645 123.148 31.9407C122.657 32.1269 122.412 32.4739 122.412 32.9817C122.412 33.1764 122.458 33.3668 122.551 33.553C122.729 33.9 123.182 34.2555 123.91 34.6194C124.705 35.0087 125.162 35.2372 125.281 35.3049C126.076 35.7958 126.474 36.401 126.474 37.1204Z" fill="#272727"/>
</svg>
