<svg width="20" height="20" viewBox="0 0 20 20" fill="none" xmlns="http://www.w3.org/2000/svg">
<path d="M4.44445 6.88889H8.33333C8.57407 6.88889 8.77296 6.81037 8.93 6.65333C9.08704 6.4963 9.16593 6.29704 9.16667 6.05556C9.16667 5.81482 9.08778 5.61593 8.93 5.45889C8.77222 5.30185 8.57333 5.22296 8.33333 5.22222H4.44445C4.2037 5.22222 4.00482 5.30111 3.84778 5.45889C3.69074 5.61667 3.61185 5.81556 3.61111 6.05556C3.61111 6.2963 3.69 6.49556 3.84778 6.65333C4.00556 6.81111 4.20445 6.88963 4.44445 6.88889ZM11.9444 15.8333H15.8333C16.0741 15.8333 16.273 15.7544 16.43 15.5967C16.587 15.4389 16.6659 15.24 16.6667 15C16.6667 14.7593 16.5878 14.5604 16.43 14.4033C16.2722 14.2463 16.0733 14.1674 15.8333 14.1667H11.9444C11.7037 14.1667 11.5048 14.2456 11.3478 14.4033C11.1907 14.5611 11.1119 14.76 11.1111 15C11.1111 15.2407 11.19 15.4396 11.3478 15.5967C11.5056 15.7537 11.7044 15.8326 11.9444 15.8333ZM11.9444 13.0556H15.8333C16.0741 13.0556 16.273 12.9767 16.43 12.8189C16.587 12.6611 16.6659 12.4622 16.6667 12.2222C16.6667 11.9815 16.5878 11.7826 16.43 11.6256C16.2722 11.4685 16.0733 11.3896 15.8333 11.3889H11.9444C11.7037 11.3889 11.5048 11.4678 11.3478 11.6256C11.1907 11.7833 11.1119 11.9822 11.1111 12.2222C11.1111 12.463 11.19 12.6619 11.3478 12.8189C11.5056 12.9759 11.7044 13.0548 11.9444 13.0556ZM6.38889 16.6667C6.62963 16.6667 6.82852 16.5878 6.98556 16.43C7.14259 16.2722 7.22148 16.0733 7.22222 15.8333V14.4444H8.61111C8.85185 14.4444 9.05074 14.3656 9.20778 14.2078C9.36481 14.05 9.4437 13.8511 9.44444 13.6111C9.44444 13.3704 9.36556 13.1715 9.20778 13.0144C9.05 12.8574 8.85111 12.7785 8.61111 12.7778H7.22222V11.3889C7.22222 11.1481 7.14333 10.9493 6.98556 10.7922C6.82778 10.6352 6.62889 10.5563 6.38889 10.5556C6.14815 10.5556 5.94926 10.6344 5.79222 10.7922C5.63519 10.95 5.5563 11.1489 5.55556 11.3889V12.7778H4.16667C3.92593 12.7778 3.72704 12.8567 3.57 13.0144C3.41296 13.1722 3.33408 13.3711 3.33333 13.6111C3.33333 13.8519 3.41222 14.0507 3.57 14.2078C3.72778 14.3648 3.92667 14.4437 4.16667 14.4444H5.55556V15.8333C5.55556 16.0741 5.63445 16.273 5.79222 16.43C5.95 16.587 6.14889 16.6659 6.38889 16.6667ZM11.75 8.25C11.9167 8.41667 12.1111 8.5 12.3333 8.5C12.5556 8.5 12.75 8.41667 12.9167 8.25L13.8889 7.27778L14.8889 8.27778C15.037 8.42593 15.2222 8.5 15.4444 8.5C15.6667 8.5 15.8611 8.41667 16.0278 8.25C16.1759 8.10185 16.25 7.91185 16.25 7.68C16.25 7.44815 16.1759 7.24926 16.0278 7.08333L15.0556 6.05556L16.0556 5.05556C16.2037 4.90741 16.2778 4.72222 16.2778 4.5C16.2778 4.27778 16.1944 4.08333 16.0278 3.91667C15.8611 3.75 15.6667 3.66667 15.4444 3.66667C15.2222 3.66667 15.0278 3.75 14.8611 3.91667L13.8889 4.88889L12.8889 3.88889C12.7407 3.74074 12.5556 3.66667 12.3333 3.66667C12.1111 3.66667 11.9167 3.75 11.75 3.91667C11.5833 4.08333 11.5 4.27778 11.5 4.5C11.5 4.72222 11.5833 4.91667 11.75 5.08333L12.7222 6.05556L11.7222 7.08333C11.5741 7.25 11.5 7.44444 11.5 7.66667C11.5 7.88889 11.5833 8.08333 11.75 8.25ZM2.22222 20C1.61111 20 1.08778 19.7822 0.652224 19.3467C0.216668 18.9111 -0.000738854 18.3881 1.88644e-06 17.7778V2.22222C1.88644e-06 1.61111 0.21778 1.08778 0.653335 0.652224C1.08889 0.216668 1.61185 -0.000738854 2.22222 1.88644e-06H17.7778C18.3889 1.88644e-06 18.9122 0.21778 19.3478 0.653335C19.7833 1.08889 20.0007 1.61185 20 2.22222V17.7778C20 18.3889 19.7822 18.9122 19.3467 19.3478C18.9111 19.7833 18.3881 20.0007 17.7778 20H2.22222Z" fill="white"/>
</svg>
