<svg width="20" height="20" viewBox="0 0 20 20" fill="none" xmlns="http://www.w3.org/2000/svg">
<path d="M11.4314 0.512406C11.0381 0.182501 10.528 0 9.99929 0C9.47054 0 8.96046 0.182501 8.56714 0.512406L0.71 7.10341C0.486604 7.29096 0.307949 7.52026 0.185632 7.77645C0.0633145 8.03263 6.87969e-05 8.30997 0 8.59045V17.9995C0 18.5301 0.225765 19.0389 0.627628 19.4141C1.02949 19.7892 1.57454 20 2.14286 20H5C5.56832 20 6.11337 19.7892 6.51523 19.4141C6.91709 19.0389 7.14286 18.5301 7.14286 17.9995V12.6648C7.14286 12.488 7.21811 12.3183 7.35207 12.1933C7.48602 12.0682 7.6677 11.998 7.85714 11.998H12.1429C12.3323 11.998 12.514 12.0682 12.6479 12.1933C12.7819 12.3183 12.8571 12.488 12.8571 12.6648V17.9995C12.8571 18.5301 13.0829 19.0389 13.4848 19.4141C13.8866 19.7892 14.4317 20 15 20H17.8571C18.4255 20 18.9705 19.7892 19.3724 19.4141C19.7742 19.0389 20 18.5301 20 17.9995V8.59045C19.9999 8.30997 19.9367 8.03263 19.8144 7.77645C19.6921 7.52026 19.5134 7.29096 19.29 7.10341L11.4329 0.512406H11.4314Z" fill="white"/>
</svg>
