<svg width="78" height="98" viewBox="0 0 78 98" fill="none" xmlns="http://www.w3.org/2000/svg">
<path fill-rule="evenodd" clip-rule="evenodd" d="M69.1058 16.9189C66.0964 16.0439 62.97 17.8639 62.104 21.0314C61.999 21.4143 61.8231 21.7718 61.5861 22.0834C61.3492 22.3951 61.0559 22.6549 60.7231 22.848C60.3902 23.041 60.0243 23.1636 59.6462 23.2086C59.2681 23.2536 58.8852 23.2202 58.5195 23.1104C58.1537 23.0005 57.8122 22.8164 57.5144 22.5684C57.2166 22.3203 56.9684 22.0134 56.784 21.665C56.5996 21.3166 56.4825 20.9336 56.4395 20.5378C56.3965 20.142 56.4283 19.7413 56.5333 19.3584C57.3643 16.3125 59.3101 13.733 61.948 12.1804C64.5858 10.6278 67.7024 10.2277 70.6205 11.0669C70.7342 11.0949 70.9616 11.1544 71.1689 11.2279C79.5048 14.1364 80.1669 25.9769 72.6903 30.3029L56.0718 39.9279C55.739 40.1207 55.3731 40.243 54.9951 40.2878C54.6171 40.3326 54.2344 40.2991 53.8688 40.1891C53.5032 40.079 53.1619 39.8947 52.8643 39.6466C52.5667 39.3986 52.3188 39.0915 52.1346 38.7431C51.9504 38.3948 51.8335 38.0118 51.7907 37.6161C51.7479 37.2205 51.78 36.8198 51.8851 36.4372C51.9902 36.0545 52.1663 35.6972 52.4033 35.3857C52.6403 35.0743 52.9336 34.8147 53.2664 34.6219L69.8849 24.9969C73.1684 23.0964 72.6368 18.1509 69.3532 16.9889L69.3332 16.9819C69.2576 16.96 69.1818 16.939 69.1058 16.9189Z" fill="#FFD340"/>
<path fill-rule="evenodd" clip-rule="evenodd" d="M69.1058 16.9189C66.0964 16.0439 62.97 17.8639 62.104 21.0314C61.999 21.4143 61.8231 21.7718 61.5861 22.0834C61.3492 22.3951 61.0559 22.6549 60.7231 22.848C60.3902 23.041 60.0243 23.1636 59.6462 23.2086C59.2681 23.2536 58.8852 23.2202 58.5195 23.1104C58.1537 23.0005 57.8122 22.8164 57.5144 22.5684C57.2166 22.3203 56.9684 22.0134 56.784 21.665C56.5996 21.3166 56.4825 20.9336 56.4395 20.5378C56.3965 20.142 56.4283 19.7413 56.5333 19.3584C57.3643 16.3125 59.3101 13.733 61.948 12.1804C64.5858 10.6278 67.7024 10.2277 70.6205 11.0669C70.7342 11.0949 70.9616 11.1544 71.1689 11.2279C79.5048 14.1364 80.1669 25.9769 72.6903 30.3029L56.0718 39.9279C55.739 40.1207 55.3731 40.243 54.9951 40.2878C54.6171 40.3326 54.2344 40.2991 53.8688 40.1891C53.5032 40.079 53.1619 39.8947 52.8643 39.6466C52.5667 39.3986 52.3188 39.0915 52.1346 38.7431C51.9504 38.3948 51.8335 38.0118 51.7907 37.6161C51.7479 37.2205 51.78 36.8198 51.8851 36.4372C51.9902 36.0545 52.1663 35.6972 52.4033 35.3857C52.6403 35.0743 52.9336 34.8147 53.2664 34.6219L69.8849 24.9969C73.1684 23.0964 72.6368 18.1509 69.3532 16.9889L69.3332 16.9819C69.2576 16.96 69.1818 16.939 69.1058 16.9189Z" fill="url(#paint0_linear_197_473)"/>
<path fill-rule="evenodd" clip-rule="evenodd" d="M69.1058 16.9189C66.0964 16.0439 62.97 17.8639 62.104 21.0314C61.999 21.4143 61.8231 21.7718 61.5861 22.0834C61.3492 22.3951 61.0559 22.6549 60.7231 22.848C60.3902 23.041 60.0243 23.1636 59.6462 23.2086C59.2681 23.2536 58.8852 23.2202 58.5195 23.1104C58.1537 23.0005 57.8122 22.8164 57.5144 22.5684C57.2166 22.3203 56.9684 22.0134 56.784 21.665C56.5996 21.3166 56.4825 20.9336 56.4395 20.5378C56.3965 20.142 56.4283 19.7413 56.5333 19.3584C57.3643 16.3125 59.3101 13.733 61.948 12.1804C64.5858 10.6278 67.7024 10.2277 70.6205 11.0669C70.7342 11.0949 70.9616 11.1544 71.1689 11.2279C79.5048 14.1364 80.1669 25.9769 72.6903 30.3029L56.0718 39.9279C55.739 40.1207 55.3731 40.243 54.9951 40.2878C54.6171 40.3326 54.2344 40.2991 53.8688 40.1891C53.5032 40.079 53.1619 39.8947 52.8643 39.6466C52.5667 39.3986 52.3188 39.0915 52.1346 38.7431C51.9504 38.3948 51.8335 38.0118 51.7907 37.6161C51.7479 37.2205 51.78 36.8198 51.8851 36.4372C51.9902 36.0545 52.1663 35.6972 52.4033 35.3857C52.6403 35.0743 52.9336 34.8147 53.2664 34.6219L69.8849 24.9969C73.1684 23.0964 72.6368 18.1509 69.3532 16.9889L69.3332 16.9819C69.2576 16.96 69.1818 16.939 69.1058 16.9189Z" fill="url(#paint1_radial_197_473)"/>
<path fill-rule="evenodd" clip-rule="evenodd" d="M8.08903 11.0669C11.008 10.2268 14.1259 10.6269 16.7646 12.1803C19.4032 13.7336 21.3493 16.3146 22.1796 19.3619C22.3911 20.1352 22.3005 20.9647 21.9277 21.668C21.5549 22.3713 20.9304 22.8908 20.1917 23.1122C19.453 23.3336 18.6605 23.2387 17.9886 22.8485C17.3167 22.4583 16.8204 21.8047 16.6089 21.0314C16.4039 20.2742 16.0576 19.5671 15.59 18.9508C15.1223 18.3345 14.5427 17.8213 13.8845 17.4409C13.2263 17.0604 12.5026 16.8203 11.7552 16.7343C11.0079 16.6483 10.2516 16.7182 9.53018 16.9399C9.47882 16.9524 9.42755 16.9652 9.37637 16.9784L9.35631 16.9854C6.07275 18.1474 5.54109 23.0929 8.82465 24.9934L25.4431 34.6184C25.7759 34.8112 26.0692 35.0708 26.3062 35.3822C26.5433 35.6937 26.7193 36.051 26.8245 36.4337C26.9296 36.8164 26.9616 37.217 26.9188 37.6127C26.876 38.0083 26.7592 38.3913 26.5749 38.7397C26.3907 39.0881 26.1428 39.3951 25.8452 39.6432C25.5477 39.8913 25.2063 40.0756 24.8407 40.1856C24.4751 40.2956 24.0924 40.3292 23.7144 40.2844C23.3364 40.2395 22.9705 40.1172 22.6377 39.9244L6.01925 30.2994C-1.45403 25.9734 -0.791972 14.1329 7.544 11.2244C7.74796 11.1544 7.97868 11.0914 8.08903 11.0634V11.0669Z" fill="#EAA73A"/>
<path fill-rule="evenodd" clip-rule="evenodd" d="M8.08903 11.0669C11.008 10.2268 14.1259 10.6269 16.7646 12.1803C19.4032 13.7336 21.3493 16.3146 22.1796 19.3619C22.3911 20.1352 22.3005 20.9647 21.9277 21.668C21.5549 22.3713 20.9304 22.8908 20.1917 23.1122C19.453 23.3336 18.6605 23.2387 17.9886 22.8485C17.3167 22.4583 16.8204 21.8047 16.6089 21.0314C16.4039 20.2742 16.0576 19.5671 15.59 18.9508C15.1223 18.3345 14.5427 17.8213 13.8845 17.4409C13.2263 17.0604 12.5026 16.8203 11.7552 16.7343C11.0079 16.6483 10.2516 16.7182 9.53018 16.9399C9.47882 16.9524 9.42755 16.9652 9.37637 16.9784L9.35631 16.9854C6.07275 18.1474 5.54109 23.0929 8.82465 24.9934L25.4431 34.6184C25.7759 34.8112 26.0692 35.0708 26.3062 35.3822C26.5433 35.6937 26.7193 36.051 26.8245 36.4337C26.9296 36.8164 26.9616 37.217 26.9188 37.6127C26.876 38.0083 26.7592 38.3913 26.5749 38.7397C26.3907 39.0881 26.1428 39.3951 25.8452 39.6432C25.5477 39.8913 25.2063 40.0756 24.8407 40.1856C24.4751 40.2956 24.0924 40.3292 23.7144 40.2844C23.3364 40.2395 22.9705 40.1172 22.6377 39.9244L6.01925 30.2994C-1.45403 25.9734 -0.791972 14.1329 7.544 11.2244C7.74796 11.1544 7.97868 11.0914 8.08903 11.0634V11.0669Z" fill="url(#paint2_linear_197_473)"/>
<path d="M44.9405 54.3199V39.5499H33.7724V54.3199C33.7724 56.9099 32.6689 59.3949 30.763 61.0399L24.343 66.6399H54.3699L47.9499 61.0399C47.0102 60.2175 46.2538 59.1898 45.7339 58.0289C45.2141 56.868 44.9432 55.602 44.9405 54.3199Z" fill="url(#paint3_linear_197_473)"/>
<path d="M44.9405 54.3199V39.5499H33.7724V54.3199C33.7724 56.9099 32.6689 59.3949 30.763 61.0399L24.343 66.6399H54.3699L47.9499 61.0399C47.0102 60.2175 46.2538 59.1898 45.7339 58.0289C45.2141 56.868 44.9432 55.602 44.9405 54.3199Z" fill="url(#paint4_radial_197_473)"/>
<path d="M44.9405 54.3199V39.5499H33.7724V54.3199C33.7724 56.9099 32.6689 59.3949 30.763 61.0399L24.343 66.6399H54.3699L47.9499 61.0399C47.0102 60.2175 46.2538 59.1898 45.7339 58.0289C45.2141 56.868 44.9432 55.602 44.9405 54.3199Z" fill="url(#paint5_radial_197_473)"/>
<path d="M39.3564 50.9249C33.1753 50.9249 27.2474 48.3547 22.8767 43.7798C18.5059 39.2048 16.0505 32.9999 16.0505 26.5299V2.51991C16.0505 1.15491 17.1205 0.0349121 18.4246 0.0349121H60.3218C61.6258 0.0349121 62.6958 1.15491 62.6958 2.51991V26.5299C62.6958 40.0049 52.2633 50.9249 39.3564 50.9249Z" fill="#EA873A"/>
<path d="M39.3564 50.9249C33.1753 50.9249 27.2474 48.3547 22.8767 43.7798C18.5059 39.2048 16.0505 32.9999 16.0505 26.5299V2.51991C16.0505 1.15491 17.1205 0.0349121 18.4246 0.0349121H60.3218C61.6258 0.0349121 62.6958 1.15491 62.6958 2.51991V26.5299C62.6958 40.0049 52.2633 50.9249 39.3564 50.9249Z" fill="url(#paint6_radial_197_473)"/>
<path d="M39.3564 50.9249C33.1753 50.9249 27.2474 48.3547 22.8767 43.7798C18.5059 39.2048 16.0505 32.9999 16.0505 26.5299V2.51991C16.0505 1.15491 17.1205 0.0349121 18.4246 0.0349121H60.3218C61.6258 0.0349121 62.6958 1.15491 62.6958 2.51991V26.5299C62.6958 40.0049 52.2633 50.9249 39.3564 50.9249Z" fill="url(#paint7_radial_197_473)"/>
<path d="M39.3564 50.9249C33.1753 50.9249 27.2474 48.3547 22.8767 43.7798C18.5059 39.2048 16.0505 32.9999 16.0505 26.5299V2.51991C16.0505 1.15491 17.1205 0.0349121 18.4246 0.0349121H60.3218C61.6258 0.0349121 62.6958 1.15491 62.6958 2.51991V26.5299C62.6958 40.0049 52.2633 50.9249 39.3564 50.9249Z" fill="url(#paint8_radial_197_473)"/>
<path d="M62.4952 66.6399H16.2177C13.7767 66.6399 11.7036 68.4249 11.2355 70.9099L6.11956 95.7249C5.88549 96.8799 6.72143 97.9649 7.85831 97.9649H70.888C72.0249 97.9649 72.8608 96.8799 72.6267 95.7249L67.5108 70.9099C67.0092 68.4249 64.9361 66.6399 62.4952 66.6399Z" fill="url(#paint9_linear_197_473)"/>
<path d="M62.4952 66.6399H16.2177C13.7767 66.6399 11.7036 68.4249 11.2355 70.9099L6.11956 95.7249C5.88549 96.8799 6.72143 97.9649 7.85831 97.9649H70.888C72.0249 97.9649 72.8608 96.8799 72.6267 95.7249L67.5108 70.9099C67.0092 68.4249 64.9361 66.6399 62.4952 66.6399Z" fill="url(#paint10_linear_197_473)"/>
<path d="M62.4952 66.6399H16.2177C13.7767 66.6399 11.7036 68.4249 11.2355 70.9099L6.11956 95.7249C5.88549 96.8799 6.72143 97.9649 7.85831 97.9649H70.888C72.0249 97.9649 72.8608 96.8799 72.6267 95.7249L67.5108 70.9099C67.0092 68.4249 64.9361 66.6399 62.4952 66.6399Z" fill="url(#paint11_linear_197_473)"/>
<g filter="url(#filter0_f_197_473)">
<path d="M48.5317 76.5939H28.4023C27.232 76.5939 26.2623 77.5739 26.2623 78.8339V85.1689C26.2623 86.3939 27.1986 87.4089 28.4023 87.4089H48.5317C49.702 87.4089 50.6717 86.4289 50.6717 85.1689V78.8339C50.6717 77.6089 49.7354 76.5939 48.5317 76.5939Z" fill="#914556"/>
</g>
<path d="M49.4211 75.9499H29.2917C28.1214 75.9499 27.1517 76.9299 27.1517 78.1899V84.5249C27.1517 85.7499 28.088 86.7649 29.2917 86.7649H49.4211C50.5914 86.7649 51.5611 85.7849 51.5611 84.5249V78.1899C51.5611 76.9649 50.6249 75.9499 49.4211 75.9499Z" fill="url(#paint12_linear_197_473)"/>
<defs>
<filter id="filter0_f_197_473" x="25.0123" y="75.3439" width="26.9094" height="13.315" filterUnits="userSpaceOnUse" color-interpolation-filters="sRGB">
<feFlood flood-opacity="0" result="BackgroundImageFix"/>
<feBlend mode="normal" in="SourceGraphic" in2="BackgroundImageFix" result="shape"/>
<feGaussianBlur stdDeviation="0.625" result="effect1_foregroundBlur_197_473"/>
</filter>
<linearGradient id="paint0_linear_197_473" x1="61.3516" y1="34.8039" x2="73.9911" y2="23.9123" gradientUnits="userSpaceOnUse">
<stop stop-color="#FEC551"/>
<stop offset="1" stop-color="#FEC551" stop-opacity="0"/>
</linearGradient>
<radialGradient id="paint1_radial_197_473" cx="0" cy="0" r="1" gradientUnits="userSpaceOnUse" gradientTransform="translate(61.4854 24.1674) rotate(-22.4608) scale(16.9961 16.1789)">
<stop offset="0.727" stop-color="#FFEC6A" stop-opacity="0"/>
<stop offset="1" stop-color="#FFEC6A"/>
</radialGradient>
<linearGradient id="paint2_linear_197_473" x1="18.983" y1="20.8494" x2="10.612" y2="18.5663" gradientUnits="userSpaceOnUse">
<stop stop-color="#D27840"/>
<stop offset="1" stop-color="#D27840" stop-opacity="0"/>
</linearGradient>
<linearGradient id="paint3_linear_197_473" x1="43.6866" y1="62.1599" x2="26.7605" y2="62.1599" gradientUnits="userSpaceOnUse">
<stop stop-color="#FBC33A"/>
<stop offset="1" stop-color="#DB7B3C"/>
</linearGradient>
<radialGradient id="paint4_radial_197_473" cx="0" cy="0" r="1" gradientUnits="userSpaceOnUse" gradientTransform="translate(44.6295 53.0949) rotate(90) scale(7.315 6.37402)">
<stop offset="0.193" stop-color="#FFE469"/>
<stop offset="1" stop-color="#FFE469" stop-opacity="0"/>
</radialGradient>
<radialGradient id="paint5_radial_197_473" cx="0" cy="0" r="1" gradientUnits="userSpaceOnUse" gradientTransform="translate(51.8452 64.2297) rotate(147.998) scale(7.70179 11.9401)">
<stop stop-color="#FFD34D"/>
<stop offset="1" stop-color="#FFD34D" stop-opacity="0"/>
</radialGradient>
<radialGradient id="paint6_radial_197_473" cx="0" cy="0" r="1" gradientUnits="userSpaceOnUse" gradientTransform="translate(47.8663 3.97241) rotate(83.981) scale(43.4601 26.689)">
<stop offset="0.121" stop-color="#FFFA73"/>
<stop offset="1" stop-color="#FFFA73" stop-opacity="0"/>
</radialGradient>
<radialGradient id="paint7_radial_197_473" cx="0" cy="0" r="1" gradientUnits="userSpaceOnUse" gradientTransform="translate(48.1371 0.0349121) rotate(90) scale(2.46519 26.3204)">
<stop stop-color="#FFF45B"/>
<stop offset="1" stop-color="#FFF45B" stop-opacity="0"/>
</radialGradient>
<radialGradient id="paint8_radial_197_473" cx="0" cy="0" r="1" gradientUnits="userSpaceOnUse" gradientTransform="translate(50.5848 9.65991) rotate(120.417) scale(45.4056 42.6388)">
<stop offset="0.787" stop-color="#C55D73" stop-opacity="0"/>
<stop offset="1" stop-color="#C55D73"/>
</radialGradient>
<linearGradient id="paint9_linear_197_473" x1="6.07943" y1="82.2919" x2="72.6535" y2="82.2919" gradientUnits="userSpaceOnUse">
<stop stop-color="#9D5B6C"/>
<stop offset="1" stop-color="#955569"/>
</linearGradient>
<linearGradient id="paint10_linear_197_473" x1="39.3731" y1="99.3264" x2="39.3731" y2="93.6354" gradientUnits="userSpaceOnUse">
<stop stop-color="#8C3A79"/>
<stop offset="1" stop-color="#8C3A79" stop-opacity="0"/>
</linearGradient>
<linearGradient id="paint11_linear_197_473" x1="70.1591" y1="85.8619" x2="67.0084" y2="86.5647" gradientUnits="userSpaceOnUse">
<stop stop-color="#B0817C"/>
<stop offset="1" stop-color="#B0817C" stop-opacity="0"/>
</linearGradient>
<linearGradient id="paint12_linear_197_473" x1="52.8117" y1="81.3574" x2="27.1517" y2="81.3574" gradientUnits="userSpaceOnUse">
<stop stop-color="#FFE767"/>
<stop offset="1" stop-color="#FEBB5B"/>
</linearGradient>
</defs>
</svg>
