<svg width="360" height="360" viewBox="0 0 360 360" fill="none" xmlns="http://www.w3.org/2000/svg">
<path d="M180 0C80.6544 0 0 80.6544 0 180C0 279.346 80.6544 360 180 360C279.166 360 359.68 279.634 359.971 180.533C359.99 180.356 359.999 180.178 360 180C360 179.84 359.993 179.68 359.978 179.521C359.719 80.3952 279.187 0 180 0ZM180 10.8C186.088 10.8 192.096 11.1384 198.022 11.7648C198.065 12.5424 196.571 13.0788 192.038 12.9024C189.698 14.9472 190.202 15.2892 181.022 15.5952C179.179 23.6088 157.756 19.0152 171.745 14.8932C192.071 10.1664 165.229 9.9936 160.636 17.9028C173.675 23.508 150.217 18.8928 145.962 22.9788C143.377 20.322 137.675 18.144 131.414 17.9028C147.179 13.1875 163.546 10.7948 180 10.8ZM309.305 70.8624C314.13 76.5863 318.572 82.6236 322.6 88.9344C322.769 90.2664 322.816 91.5876 322.65 92.8944C324.965 99.8712 320.53 93.2184 320.414 92.3328C314.662 86.3784 312.476 78.5664 309.305 70.8624ZM53.6256 71.5644C56.9484 71.0964 39.0744 85.9212 46.3572 84.3696C53.352 68.4936 56.8188 87.2784 46.512 88.4304C38.016 109.408 57.4848 77.6304 57.6576 89.0352C52.4556 100.156 58.392 107.183 68.4072 102.024C78.0084 98.2008 70.3188 108.166 75.8448 108C83.3328 97.704 80.8704 108.497 74.7 116.086C64.9512 120.506 55.6992 113.044 49.1904 107.388C42.0624 122.051 36.3708 101.39 41.1552 95.688C47.5848 93.78 41.4144 89.784 38.862 86.6448C39.9024 85.0788 40.9788 83.538 42.066 82.0044C43.1964 81.1656 43.5636 80.514 43.5312 79.9524C44.8776 78.1164 46.2744 76.3164 47.6928 74.538C50.9976 72.6012 52.8948 71.6688 53.6256 71.5644ZM88.0884 71.622C87.6888 77.418 104.18 75.5568 103.172 85.8996C97.6032 89.9496 93.2292 83.1996 88.0884 82.6524C72.5688 88.0236 78.462 75.8232 88.0884 71.622ZM133.128 72.7668C134.453 72.8136 135.378 73.4652 135.515 74.898C122.951 78.6024 134.341 93.8808 133.34 103.662C124.438 106.841 113.299 98.9496 125.078 91.818C114.152 83.7 127.39 72.5616 133.128 72.7668ZM305.626 86.2884C310.997 85.7016 316.919 94.7736 322.06 104.17C319.684 87.5808 336.161 126.81 329.393 104.314C329.746 103.554 329.983 102.762 330.138 101.952C342.691 126.051 349.231 152.828 349.2 180C349.2 187.499 348.66 194.868 347.717 202.104C345.654 202.414 345.55 221.335 342.083 216.526C339.091 219.067 349.924 196.477 342 210.524C329.555 223.448 336.478 201.125 341.15 194.9C344.588 196.772 347.566 192.938 345.607 183.938C344.203 169.322 337.45 164.704 334.015 151.636C328.306 154.426 337.417 173.488 334.195 182.207C331.567 193.583 326.3 220.604 315.634 218.686C309.816 205.229 316.894 231.07 313.952 235.904C316.217 239.256 333.169 242.795 330.898 228.424C337.212 210.737 333.634 226.192 333.119 236.03C341.68 242.654 318.719 251.885 326.707 245.383C320.782 243.058 315.9 249.649 310.838 248.969C306.464 252.781 306.115 245.83 308.03 243.547C321.397 237.377 301.907 239.58 305.1 233.179C306.756 219.197 295.625 209.866 290.196 200.84C287.741 183.434 304.398 196.229 303.653 203.047C321.509 195.059 314.363 171.5 303.52 160.873C310.892 145.534 306.587 162.702 312.16 164.912C313.502 154.948 316.706 149.598 323.381 141.034C327.737 125.636 322.063 109.919 311.105 98.9352C317.045 91.0836 298.325 88.506 304.56 86.5332C304.913 86.4072 305.269 86.328 305.626 86.2884ZM114.43 131.569C112.86 140.983 134.532 143.647 126.716 149.483C124.639 150.232 122.432 151.085 120.172 150.53C121.345 145.368 103.759 131.35 114.43 131.569ZM69.3648 134.125C70.8156 133.823 73.026 137.099 72.3672 142.826C74.8872 157.262 80.064 170.168 82.314 183.917C82.53 190.181 79.5492 184.565 78.5952 182.772C70.3692 171.558 71.8776 155.974 69.0732 141.883C67.572 136.771 68.2344 134.366 69.3612 134.129L69.3648 134.125ZM134.852 148.795C144.292 153.54 164.689 147.262 174.416 156.719C180.86 149.436 173.416 168.124 184.338 169.157C196.225 164.639 190.015 176.443 194.288 184.385C200.506 195.545 201.956 212.648 213.102 219.355C223.628 205.02 217.562 235.066 229.324 225.058C231.739 212.918 219.841 203.915 223.456 190.75C230.195 182.858 240.635 175.381 246.316 165.409C255.683 155.761 264.272 163.062 269.33 172.49C268.661 181.832 273.24 185.018 280.984 179.77C285.016 192.082 280.325 208.21 291.697 217.292C300.881 238.45 279.76 208.508 275.792 221.335C284.45 229.543 282.092 237.665 288.058 246.2C293.731 245.214 299.743 257.015 308.308 256.543C316.069 253.955 327.1 254.362 334.274 249.512C329.61 259.861 323.913 269.712 317.272 278.917C311.972 283.709 307.8 289.354 303.905 295.222C273.02 328.421 228.967 349.2 180 349.2C142.09 349.254 105.269 336.52 75.492 313.056C74.322 306.576 79.056 307.696 76.6692 301.964C64.9332 290.484 91.2852 292.619 81.6876 279.205C78.1884 270.252 72.6228 259.326 75.2904 250.2C80.9604 241.193 91.008 236.754 98.7264 229.064C103.709 219.532 113.558 210.593 111.593 199.807C104.875 198.713 101.106 200.909 93.3876 201.2C74.3688 196.722 100.372 193.871 105.538 189.886C117.569 186.44 131.458 182.156 139.043 171.824C150.214 164.927 143.658 154.195 134.852 148.795ZM337.522 179.726C339.343 180.572 340.942 193.237 337.241 198.392C333.436 204.75 331.474 189.536 335.376 187.708C335.819 181.393 336.694 179.341 337.522 179.726ZM341.345 222.736C341.698 222.671 342.169 223.412 342.871 225.374C342.95 225.259 343.004 225.23 343.084 225.122C341.897 229.473 340.537 233.773 339.005 238.014C336.784 239.659 334.732 240.466 335.617 235.829C340.65 238.489 339.822 223.024 341.345 222.736ZM107.01 283.957C105.664 284.119 104.166 285.336 102.593 287.993C88.4376 289.282 94.0068 305.633 100.21 313.438C104.782 319.846 112.514 317.135 111.136 308.966C115.934 302.296 112.842 283.259 107.01 283.957Z" fill="#CCF2E9"/>
</svg>
